<svg version="1.2" xmlns="http://www.w3.org/2000/svg" viewBox="0 0 1656 2200" width="1656" height="2200">
	<style>
		tspan { white-space:pre } 
		.s0 { fill: #d6d6d6 } 
		.s1 { fill: #b7bec4 } 
		.s2 { fill: #e53c3c } 
		.s3 { fill: #c43939 } 
		.s4 { fill: #a83131 } 
		.s5 { fill: #ffffff } 
	</style>
	<g id="Objects">
		<g id="&lt;Group&gt;">
			<g id="&lt;Group&gt;">
				<path id="&lt;Path&gt;" class="s0" d="m622.66 1365.41l-261.77 381.23c-82.36 119.96-174.45 204.58-236.32 253.92-24.02 19.15-58.32-4.45-49.03-33.72 24.03-75.63 70.11-192.24 152.13-311.68l261.76-381.23z"/>
				<path id="&lt;Path&gt;" class="s1" d="m562.85 1452.52l-201.96 294.12c-82.36 119.96-174.45 204.58-236.32 253.92-24.02 19.16-58.32-4.45-49.03-33.72q4.21-13.31 9.38-28.2c1.21 19.7 25.17 32.63 42.69 18.67 52.26-41.67 130.04-113.16 199.61-214.49l169.67-247.09c-70.55-47.82-105.19-79.46-105.19-79.46l37.92-55.23z"/>
				<path id="&lt;Path&gt;" class="s2" d="m1128.94 1129.78c110.81 136.25 154.84 267.21 101.6 344.74l-68.29 99.48c-86.01 125.25-393.31 63.66-686.38-137.57-293.07-201.23-460.92-465.9-374.93-591.16l68.31-99.46c52.71-76.77 188.55-83.35 353.29-30.6z"/>
				<path id="&lt;Path&gt;" class="s3" d="m1230.54 1474.52l-68.29 99.48c-86 125.25-393.31 63.66-686.38-137.57-250.6-172.08-409.65-390.54-396.71-528.55 12.07 129.15 155.25 313.97 370.93 462.06 274.14 188.24 561.58 245.85 642.02 128.68l63.89-93.04c49.75-72.44 8.71-194.73-94.66-322.03l67.6 46.23c110.8 136.25 154.84 267.21 101.6 344.74z"/>
				<path id="&lt;Path&gt;" class="s3" d="m1411.99 645.27c0 0-227.84 404.12-312.78 527.82-20.9 30.43-54.77 49.45-91.64 51.31-58.59 2.97-156.4-17.8-306.26-120.69-151.14-103.79-205.29-188.16-223.1-243.91-11.08-34.65-5.17-72.51 15.42-102.49 100.65-146.58 381.61-483.6 381.61-483.6z"/>
				<path id="&lt;Path&gt;" class="s4" d="m1099.21 1173.09c-20.89 30.43-54.77 49.44-91.64 51.31-58.59 2.97-156.39-17.8-306.25-120.7-151.16-103.79-205.31-188.16-223.11-243.9-2.86-8.96-4.59-18.14-5.21-27.34 69.88 108.85 203.26 205.61 309.57 261.16 99 51.72 221.08 17.37 278.65-78.34 45.29-75.31 139.4-232.78 179.03-306.02-61.96-24.2-357.96-183.11-429.04-360.81 38.2-45.04 64.02-74.74 64.02-74.74l536.76 371.57c0 0-227.84 404.11-312.78 527.81z"/>
				<path id="&lt;Path&gt;" class="s2" d="m792.26 123.17c-64.47 93.9 61.36 292.3 281.06 443.15 219.69 150.85 450.05 197.02 514.53 103.12l51.19-74.56c64.47-93.9-61.36-292.3-281.05-443.15-219.7-150.85-450.06-197.02-514.53-103.12z"/>
				<path id="&lt;Path&gt;" class="s3" d="m1639.04 594.88l-51.19 74.56c-64.48 93.9-294.85 47.73-514.54-103.11-182.28-125.17-299.96-283.09-297.89-386.86 28.39 81.9 88.47 149.95 152.87 208.6 132.79 120.9 328.62 233.31 488.06 267.53 49.35 10.59 100.19-10.08 128.42-51.93 15.77-23.4 28.05-40.68 44.23-71.62 0 0 44.58-170.07-370.85-461.98 45.96 22.27 93.14 49.6 139.84 81.66 219.69 150.85 345.52 349.26 281.05 443.15z"/>
				<g id="&lt;Group&gt;">
					<path id="&lt;Path&gt;" class="s5" d="m1137.22 92.27c3.85-5.61 0.76-13.95-6.43-17.41-45.25-21.78-95.46-31.65-141.97-26.76-51.21 5.38-97.47 28.87-126.84 65.78-10.88 13.68-18.85 34.48-5.36 49.71 12.45 14.07 35.64 12.77 48.61 2.81 12.97-9.95 19.13-25.71 27.65-39.41 34.15-54.99 119.89-58.87 190.72-31.37 5.29 2.06 10.86 0.67 13.62-3.35z"/>
				</g>
				<g id="&lt;Group&gt;">
					<path id="&lt;Path&gt;" class="s5" d="m458.34 758.78c2.35-6.13-0.71-13.02-6.83-15.41-39.56-15.43-81.78-21.93-121.31-17.77-51.21 5.37-97.47 28.85-126.84 65.77-10.89 13.68-18.86 34.48-5.37 49.72 12.46 14.06 35.64 12.75 48.61 2.8 12.97-9.95 19.14-25.7 27.65-39.42 30.82-49.62 103.66-57.62 169.64-38.49 5.95 1.72 12.23-1.41 14.45-7.2z"/>
				</g>
				<g id="&lt;Group&gt;">
					<path id="&lt;Path&gt;" class="s5" d="m781.19 465.46c8.03 1.65 11.64 11.09 6.74 17.68q-102.07 137.48-204.13 275c-6.02 8.09-15.12 17.2-24.54 13.59-6.8-2.6-9.67-11.16-8.24-18.29 1.43-7.14 6.06-13.14 10.56-18.86q104.13-132.56 208.28-265.11c2.63-3.34 6.92-4.92 11.08-4.06q0.12 0.03 0.25 0.05z"/>
				</g>
				<g id="&lt;Group&gt;">
					<path id="&lt;Path&gt;" class="s5" d="m234.41 1692.59q68.15-101.71 136.31-203.44c2.37-3.53 6.53-5.42 10.74-4.88l0.25 0.02c8.14 1.05 12.45 10.18 8.07 17.12q-65.38 103.58-130.76 207.19c-4.34 6.87-13.43 8.91-20.29 4.55-6.96-4.43-8.91-13.71-4.32-20.56z"/>
				</g>
			</g>
		</g>
	</g>
</svg>